Coordinates
version=1
nRows=13
nColumns=36
inDegrees=yes

Units are S.I. units (second, meters, Newtons, ...)
If the header above contains a line with 'inDegrees', this indicates whether rotational values are in degrees (yes) or radians (no).

endheader
time	pelvis_tilt	pelvis_list	pelvis_rotation	pelvis_tx	pelvis_ty	pelvis_tz	hip_flexion_r	hip_adduction_r	hip_rotation_r	knee_angle_r	knee_angle_r_beta	ankle_angle_r	subtalar_angle_r	mtp_angle_r	hip_flexion_l	hip_adduction_l	hip_rotation_l	knee_angle_l	knee_angle_l_beta	ankle_angle_l	subtalar_angle_l	mtp_angle_l	lumbar_extension	lumbar_bending	lumbar_rotation	arm_flex_r	arm_add_r	arm_rot_r	elbow_flex_r	pro_sup_r	arm_flex_l	arm_add_l	arm_rot_l	elbow_flex_l	pro_sup_l
      1.17000000	    -16.94287867	     -0.23407801	      0.07969217	     -0.69666287	      1.32819720	     -0.57411509	     21.66351611	     -3.34351585	     -4.99070460	     42.21325643	      0.73676031	    -26.33113204	    -18.29010967	     -6.36808075	     19.07182930	     -2.71690477	      2.99746366	     33.21555570	      0.57972081	    -32.92119819	    -10.20549371	     -6.36808075	      3.86567468	      2.57137257	     -3.01272622	     74.83536349	    -14.61097872	     29.44708495	     51.25241233	    104.94829913	     79.57371729	    -24.44289957	     37.99484435	     32.11676555	     97.32974630
      1.18000000	    -16.82731428	     -0.15421846	     -0.03391637	     -0.68636107	      1.32985688	     -0.57442956	     22.38428560	     -3.63876482	     -5.21779192	     42.24606263	      0.73733289	    -25.92961724	    -19.02502059	     -6.41486102	     19.62218328	     -2.80471406	      2.64795726	     32.74522084	      0.57151192	    -32.85881061	    -10.79256641	     -6.41486102	      3.73945034	      2.63694313	     -2.81930230	     72.54016874	    -15.16463589	     28.10336964	     51.97124088	    104.88536212	     77.30951082	    -25.12588960	     37.45149891	     32.94357433	     97.97868698
      1.19000000	    -16.54823180	     -0.12399730	     -0.17384726	     -0.67621004	      1.33090940	     -0.57461393	     22.86912272	     -3.86011072	     -5.47942950	     41.91691767	      0.73158823	    -25.53239331	    -19.46617660	     -6.42200160	     19.97053286	     -2.96308119	      2.29123029	     32.09402705	      0.56014644	    -32.53655673	    -11.07631999	     -6.42200160	      3.35898277	      2.77579594	     -2.69184504	     70.62179010	    -15.78566826	     27.98778103	     51.91105250	    104.88359131	     75.22712327	    -25.76761484	     37.42347302	     32.70078874	     98.10899138
      1.20000000	    -16.28820879	     -0.06772845	     -0.32045487	     -0.66625045	      1.33109895	     -0.57470637	     23.39753208	     -4.13368553	     -5.77713647	     41.41029350	      0.72274597	    -25.22852785	    -19.81095938	     -6.42796777	     20.38842166	     -3.14618927	      1.76571270	     31.37137615	      0.54753380	    -32.21366925	    -11.29412567	     -6.42796777	      2.88012406	      2.89532482	     -2.61472502	     68.57019146	    -16.37892877	     27.71095323	     52.04183275	    104.88161914	     73.13092414	    -26.52286997	     37.14822016	     32.36402146	     98.18354045
      1.21000000	    -16.16865257	     -0.04973073	     -0.48914881	     -0.65642875	      1.33037386	     -0.57455218	     24.06265798	     -4.29935247	     -5.95635362	     40.65283510	      0.70952582	    -25.32843554	    -20.28650428	     -6.80327527	     21.01538127	     -3.42854632	      1.20144524	     30.63849846	      0.53474268	    -31.83791515	    -11.16937835	     -6.80327527	      2.27719855	      2.97194904	     -2.47191411	     65.62094649	    -16.80995377	     24.62902152	     53.90281531	    105.66521842	     69.63595980	    -26.78831277	     29.57167331	     34.18650785	    104.48690394
      1.22000000	    -15.82383716	      0.05495235	     -0.54055243	     -0.64670986	      1.32870898	     -0.57466495	     24.50489276	     -4.68662317	     -6.41646944	     39.81185124	      0.69484789	    -25.16369623	    -20.27763879	     -6.80756118	     21.46874637	     -3.57803208	      0.55610187	     29.91302048	      0.52208070	    -31.45290077	    -11.28285313	     -6.80756118	      1.58568057	      2.96094187	     -2.47863565	     63.55798183	    -17.47643696	     24.56200210	     53.71358045	    105.56751647	     67.55637300	    -27.47325581	     29.49643800	     33.62820134	    104.37438776
      1.23000000	    -15.56330794	      0.18256725	     -0.54782297	     -0.63703335	      1.32607044	     -0.57487076	     24.92673066	     -5.02632224	     -6.71459306	     38.55870828	      0.67297641	    -25.11977971	    -20.17004611	     -6.81240056	     21.95109005	     -3.63211201	      0.09929873	     28.96360025	      0.50551019	    -31.02130954	    -11.39103367	     -6.81240056	      0.89621577	      2.91583102	     -2.53243651	     61.32033674	    -18.16439108	     24.18015341	     53.80187648	    105.47528679	     65.34246776	    -28.20637935	     29.21706179	     33.24843885	    104.27272376
      1.24000000	    -15.33215407	      0.25561202	     -0.51629935	     -0.62732262	      1.32258116	     -0.57493127	     25.29448601	     -5.21984838	     -6.77850592	     37.03633579	      0.64640600	    -25.74411029	    -20.13099644	     -6.84805169	     22.49830373	     -3.72101010	     -0.09234934	     28.01696117	      0.48898822	    -30.55284177	    -11.14669855	     -6.84805169	     -0.02027026	      2.86993162	     -2.26650419	     57.76976813	    -18.77555822	     20.35194178	     56.22512294	    105.35968306	     62.25914018	    -28.42890758	     25.34767249	     35.14734474	    104.15736968
      1.25000000	    -15.16382892	      0.28180203	     -0.53542524	     -0.61764735	      1.31786585	     -0.57493104	     25.69021405	     -5.36392069	     -6.87756729	     35.30247314	      0.61614439	    -26.16181740	    -19.65266588	     -6.88071289	     23.17042774	     -3.91782152	     -0.46961154	     27.13580987	      0.47360923	    -30.00456570	    -10.88279189	     -6.88071289	     -0.73022099	      2.91508209	     -2.27656650	     55.10667659	    -19.35574563	     19.16839508	     56.65972581	    105.43320468	     59.32473940	    -28.98776530	     23.34358012	     35.84655363	    104.25460160
      1.26000000	    -14.99126658	      0.46039324	     -0.51008229	     -0.60789637	      1.31196411	     -0.57503832	     26.10909529	     -5.73147683	     -7.12035841	     33.59546877	      0.58635154	    -26.14541243	    -19.30937748	     -6.88469538	     23.84734956	     -3.93978167	     -0.99478911	     26.23105772	      0.45781832	    -29.59854824	    -10.95071756	     -6.88469538	     -1.32074860	      2.75703457	     -2.32217175	     52.65607898	    -20.08132002	     19.09087012	     56.19607682	    105.35006173	     56.82036388	    -29.55580319	     23.32670160	     35.30214897	    104.17872399
      1.27000000	    -14.87866535	      0.59327974	     -0.39374054	     -0.59798440	      1.30508939	     -0.57538186	     26.43264364	     -6.04902033	     -7.35842667	     31.51975948	      0.55012358	    -26.26943611	    -18.69541328	     -6.88874355	     24.54318064	     -3.93665145	     -1.36067624	     25.17909408	      0.43945809	    -29.21771173	    -10.89808164	     -6.88874355	     -1.84923111	      2.67151653	     -2.44278025	     49.99629220	    -20.78910999	     18.76208442	     55.87904626	    105.26772347	     54.08765030	    -30.05778059	     23.20832758	     34.94556008	    104.11758400
      1.28000000	    -14.81003697	      0.46010099	     -0.19384690	     -0.58784680	      1.29740769	     -0.57578601	     26.55140947	     -6.05427426	     -7.50709427	     28.95021869	      0.50527664	    -26.56379112	    -16.93792459	     -6.92035200	     25.28150168	     -4.17248445	     -1.30753593	     24.07513309	      0.42019034	    -28.69921312	     -9.90844396	     -6.92035200	     -2.63183590	      2.90091591	     -2.51234550	     46.21649613	    -21.07711512	     15.04094120	     57.63726916	    105.43285016	     50.06521650	    -30.29927591	     19.11233540	     37.55052871	    104.26288035
      1.29000000	    -14.81466137	      0.47528113	     -0.07216665	     -0.57766979	      1.28837251	     -0.57611708	     26.83135725	     -6.20489466	     -7.68088802	     26.52534301	      0.46295457	    -26.38532103	    -15.65862373	     -6.96220740	     26.08413343	     -4.31270075	     -1.55985180	     22.92915823	      0.40018931	    -28.60550009	     -9.37512396	     -6.96220740	     -3.13951423	      2.95936403	     -2.77726924	     43.23225983	    -21.47907611	     14.01111419	     57.57584724	    105.70537091	     46.20359539	    -30.50265365	     15.89120419	     38.77342557	    104.29115138
